<svg xmlns="http://www.w3.org/2000/svg" width="800" height="600" viewBox="0 0 800 600" fill="none">
  <rect width="800" height="600" fill="#E0F2FE"/>
  <rect x="30" y="30" width="740" height="540" rx="36" fill="#FFFFFF"/>
  <path d="M292 448C292 364.053 350.053 306 434 306C517.947 306 576 364.053 576 448V478H292V448Z" fill="#D6D3D1"/>
  <path d="M324 206C324 142.487 375.487 91 439 91C502.513 91 554 142.487 554 206V246C554 309.513 502.513 361 439 361C375.487 361 324 309.513 324 246V206Z" fill="#E7E5E4"/>
  <circle cx="392" cy="228" r="16" fill="#0F172A"/>
  <circle cx="484" cy="228" r="14" fill="#0F172A"/>
  <path d="M404 284C428 264 458 266 476 290" stroke="#0F172A" stroke-width="10" stroke-linecap="round"/>
  <text x="400" y="510" fill="#0F172A" font-family="Arial" font-size="28" font-weight="700" text-anchor="middle">NPC / Wojak Ops</text>
  <text x="400" y="546" fill="#475569" font-family="Arial" font-size="22" text-anchor="middle">Awaiting script update...</text>
</svg>
